<mxfile host="app.diagrams.net" agent="Mozilla/5.0 (Windows NT 10.0; Win64; x64) AppleWebKit/537.36 (KHTML, like Gecko) Chrome/137.0.0.0 Safari/537.36" version="28.0.7">
  <diagram name="หน้า-1" id="Y2vD0XU0DlLx4nt6AFk3">
    <mxGraphModel dx="1303" dy="659" grid="1" gridSize="10" guides="1" tooltips="1" connect="1" arrows="1" fold="1" page="1" pageScale="1" pageWidth="1654" pageHeight="2336" math="0" shadow="0">
      <root>
        <mxCell id="0" />
        <mxCell id="1" parent="0" />
        <mxCell id="bCi3f5IO90WWb2AlEukO-58" style="edgeStyle=orthogonalEdgeStyle;rounded=0;orthogonalLoop=1;jettySize=auto;html=1;exitX=0.5;exitY=1;exitDx=0;exitDy=0;entryX=0.5;entryY=0;entryDx=0;entryDy=0;" edge="1" parent="1" source="bCi3f5IO90WWb2AlEukO-59" target="bCi3f5IO90WWb2AlEukO-75">
          <mxGeometry relative="1" as="geometry" />
        </mxCell>
        <mxCell id="bCi3f5IO90WWb2AlEukO-59" value="เริ่มต้น" style="ellipse;whiteSpace=wrap;html=1;" vertex="1" parent="1">
          <mxGeometry x="640" y="180" width="100" height="50" as="geometry" />
        </mxCell>
        <mxCell id="bCi3f5IO90WWb2AlEukO-60" value="" style="edgeStyle=orthogonalEdgeStyle;rounded=0;orthogonalLoop=1;jettySize=auto;html=1;" edge="1" parent="1" source="bCi3f5IO90WWb2AlEukO-62" target="bCi3f5IO90WWb2AlEukO-112">
          <mxGeometry relative="1" as="geometry" />
        </mxCell>
        <mxCell id="bCi3f5IO90WWb2AlEukO-61" style="edgeStyle=orthogonalEdgeStyle;rounded=0;orthogonalLoop=1;jettySize=auto;html=1;exitX=1;exitY=0.5;exitDx=0;exitDy=0;entryX=1;entryY=0.5;entryDx=0;entryDy=0;" edge="1" parent="1" source="bCi3f5IO90WWb2AlEukO-62" target="bCi3f5IO90WWb2AlEukO-94">
          <mxGeometry relative="1" as="geometry">
            <Array as="points">
              <mxPoint x="1720" y="360" />
              <mxPoint x="1720" y="2265" />
            </Array>
          </mxGeometry>
        </mxCell>
        <mxCell id="bCi3f5IO90WWb2AlEukO-62" value="กด1คือเล่น กด-1คือออกเกม" style="rhombus;whiteSpace=wrap;html=1;" vertex="1" parent="1">
          <mxGeometry x="615" y="310" width="150" height="80" as="geometry" />
        </mxCell>
        <mxCell id="bCi3f5IO90WWb2AlEukO-63" value="" style="edgeStyle=orthogonalEdgeStyle;rounded=0;orthogonalLoop=1;jettySize=auto;html=1;" edge="1" parent="1" source="bCi3f5IO90WWb2AlEukO-64" target="bCi3f5IO90WWb2AlEukO-115">
          <mxGeometry relative="1" as="geometry" />
        </mxCell>
        <mxCell id="bCi3f5IO90WWb2AlEukO-64" value="score=100" style="whiteSpace=wrap;html=1;" vertex="1" parent="1">
          <mxGeometry x="620" y="700" width="120" height="60" as="geometry" />
        </mxCell>
        <mxCell id="bCi3f5IO90WWb2AlEukO-65" style="edgeStyle=orthogonalEdgeStyle;rounded=0;orthogonalLoop=1;jettySize=auto;html=1;exitX=0.5;exitY=1;exitDx=0;exitDy=0;entryX=0.5;entryY=0;entryDx=0;entryDy=0;" edge="1" parent="1" source="bCi3f5IO90WWb2AlEukO-66" target="bCi3f5IO90WWb2AlEukO-98">
          <mxGeometry relative="1" as="geometry" />
        </mxCell>
        <mxCell id="bCi3f5IO90WWb2AlEukO-66" value="สุ่มเลข1-100&lt;div&gt;(เก็บในRandom)&lt;/div&gt;" style="whiteSpace=wrap;html=1;" vertex="1" parent="1">
          <mxGeometry x="610" y="910.0000000000001" width="120" height="60" as="geometry" />
        </mxCell>
        <mxCell id="bCi3f5IO90WWb2AlEukO-67" style="edgeStyle=orthogonalEdgeStyle;rounded=0;orthogonalLoop=1;jettySize=auto;html=1;exitX=0.5;exitY=1;exitDx=0;exitDy=0;entryX=0.5;entryY=0;entryDx=0;entryDy=0;" edge="1" parent="1" source="bCi3f5IO90WWb2AlEukO-68" target="bCi3f5IO90WWb2AlEukO-71">
          <mxGeometry relative="1" as="geometry" />
        </mxCell>
        <mxCell id="bCi3f5IO90WWb2AlEukO-68" value="รับค่าจากผู้เล่น(Number)" style="shape=parallelogram;perimeter=parallelogramPerimeter;whiteSpace=wrap;html=1;fixedSize=1;" vertex="1" parent="1">
          <mxGeometry x="590" y="1080" width="160" height="60" as="geometry" />
        </mxCell>
        <mxCell id="bCi3f5IO90WWb2AlEukO-69" value="" style="edgeStyle=orthogonalEdgeStyle;rounded=0;orthogonalLoop=1;jettySize=auto;html=1;" edge="1" parent="1" source="bCi3f5IO90WWb2AlEukO-71" target="bCi3f5IO90WWb2AlEukO-73">
          <mxGeometry relative="1" as="geometry" />
        </mxCell>
        <mxCell id="bCi3f5IO90WWb2AlEukO-70" style="edgeStyle=orthogonalEdgeStyle;rounded=0;orthogonalLoop=1;jettySize=auto;html=1;exitX=1;exitY=0.5;exitDx=0;exitDy=0;entryX=0.5;entryY=0;entryDx=0;entryDy=0;" edge="1" parent="1" source="bCi3f5IO90WWb2AlEukO-71" target="bCi3f5IO90WWb2AlEukO-110">
          <mxGeometry relative="1" as="geometry" />
        </mxCell>
        <mxCell id="bCi3f5IO90WWb2AlEukO-71" value="Number==Random หรือไม่" style="rhombus;whiteSpace=wrap;html=1;" vertex="1" parent="1">
          <mxGeometry x="560" y="1190" width="220" height="80" as="geometry" />
        </mxCell>
        <mxCell id="bCi3f5IO90WWb2AlEukO-72" style="edgeStyle=orthogonalEdgeStyle;rounded=0;orthogonalLoop=1;jettySize=auto;html=1;exitX=0.5;exitY=1;exitDx=0;exitDy=0;entryX=0;entryY=0.5;entryDx=0;entryDy=0;" edge="1" parent="1" source="bCi3f5IO90WWb2AlEukO-73" target="bCi3f5IO90WWb2AlEukO-75">
          <mxGeometry relative="1" as="geometry">
            <Array as="points">
              <mxPoint x="325" y="1360" />
              <mxPoint x="120" y="1360" />
              <mxPoint x="120" y="270" />
            </Array>
          </mxGeometry>
        </mxCell>
        <mxCell id="bCi3f5IO90WWb2AlEukO-73" value="แสดง&quot;That is correct the winning&amp;nbsp; number is.....&lt;span style=&quot;background-color: transparent; color: light-dark(rgb(0, 0, 0), rgb(255, 255, 255));&quot;&gt;&quot;&lt;/span&gt;&lt;div&gt;และ score&lt;/div&gt;" style="whiteSpace=wrap;html=1;" vertex="1" parent="1">
          <mxGeometry x="180" y="1280" width="290" height="60" as="geometry" />
        </mxCell>
        <mxCell id="bCi3f5IO90WWb2AlEukO-74" style="edgeStyle=orthogonalEdgeStyle;rounded=0;orthogonalLoop=1;jettySize=auto;html=1;exitX=0.5;exitY=1;exitDx=0;exitDy=0;entryX=0.5;entryY=0;entryDx=0;entryDy=0;" edge="1" parent="1" source="bCi3f5IO90WWb2AlEukO-75" target="bCi3f5IO90WWb2AlEukO-62">
          <mxGeometry relative="1" as="geometry" />
        </mxCell>
        <mxCell id="bCi3f5IO90WWb2AlEukO-75" value="" style="ellipse;whiteSpace=wrap;html=1;aspect=fixed;" vertex="1" parent="1">
          <mxGeometry x="680" y="260" width="20" height="20" as="geometry" />
        </mxCell>
        <mxCell id="bCi3f5IO90WWb2AlEukO-76" value="" style="edgeStyle=orthogonalEdgeStyle;rounded=0;orthogonalLoop=1;jettySize=auto;html=1;" edge="1" parent="1" source="bCi3f5IO90WWb2AlEukO-77" target="bCi3f5IO90WWb2AlEukO-79">
          <mxGeometry relative="1" as="geometry" />
        </mxCell>
        <mxCell id="bCi3f5IO90WWb2AlEukO-77" value="Number &lt;span style=&quot;font-size: 10px;&quot;&gt;&amp;lt; Random หรือไม่&lt;/span&gt;" style="rhombus;whiteSpace=wrap;html=1;" vertex="1" parent="1">
          <mxGeometry x="890" y="1660" width="220" height="80" as="geometry" />
        </mxCell>
        <mxCell id="bCi3f5IO90WWb2AlEukO-78" style="edgeStyle=orthogonalEdgeStyle;rounded=0;orthogonalLoop=1;jettySize=auto;html=1;exitX=0.5;exitY=1;exitDx=0;exitDy=0;entryX=0;entryY=0.5;entryDx=0;entryDy=0;" edge="1" parent="1" source="bCi3f5IO90WWb2AlEukO-79" target="bCi3f5IO90WWb2AlEukO-85">
          <mxGeometry relative="1" as="geometry" />
        </mxCell>
        <mxCell id="bCi3f5IO90WWb2AlEukO-79" value="แสดง &quot;Sorry, the winning number is LOWER than(ขอบเขตเลข)&quot;&lt;div&gt;และ score&lt;/div&gt;" style="whiteSpace=wrap;html=1;" vertex="1" parent="1">
          <mxGeometry x="530" y="1770" width="340" height="60" as="geometry" />
        </mxCell>
        <mxCell id="bCi3f5IO90WWb2AlEukO-80" value="จริง" style="text;html=1;align=center;verticalAlign=middle;resizable=0;points=[];autosize=1;strokeColor=none;fillColor=none;" vertex="1" parent="1">
          <mxGeometry x="420" y="1190" width="40" height="30" as="geometry" />
        </mxCell>
        <mxCell id="bCi3f5IO90WWb2AlEukO-81" style="edgeStyle=orthogonalEdgeStyle;rounded=0;orthogonalLoop=1;jettySize=auto;html=1;exitX=0.5;exitY=1;exitDx=0;exitDy=0;entryX=1;entryY=0.5;entryDx=0;entryDy=0;" edge="1" parent="1" source="bCi3f5IO90WWb2AlEukO-82" target="bCi3f5IO90WWb2AlEukO-85">
          <mxGeometry relative="1" as="geometry" />
        </mxCell>
        <mxCell id="bCi3f5IO90WWb2AlEukO-82" value="แสดง &quot;Sorry, the winning number is HIGHER than(ขอบเขตเลข)&quot;&lt;div&gt;และ score&lt;/div&gt;" style="whiteSpace=wrap;html=1;" vertex="1" parent="1">
          <mxGeometry x="1110" y="1770" width="340" height="60" as="geometry" />
        </mxCell>
        <mxCell id="bCi3f5IO90WWb2AlEukO-83" style="edgeStyle=orthogonalEdgeStyle;rounded=0;orthogonalLoop=1;jettySize=auto;html=1;exitX=1;exitY=0.5;exitDx=0;exitDy=0;entryX=0.52;entryY=-0.018;entryDx=0;entryDy=0;entryPerimeter=0;" edge="1" parent="1" source="bCi3f5IO90WWb2AlEukO-77" target="bCi3f5IO90WWb2AlEukO-82">
          <mxGeometry relative="1" as="geometry" />
        </mxCell>
        <mxCell id="bCi3f5IO90WWb2AlEukO-84" style="edgeStyle=orthogonalEdgeStyle;rounded=0;orthogonalLoop=1;jettySize=auto;html=1;exitX=0.5;exitY=1;exitDx=0;exitDy=0;entryX=0.5;entryY=0;entryDx=0;entryDy=0;" edge="1" parent="1" source="bCi3f5IO90WWb2AlEukO-85" target="bCi3f5IO90WWb2AlEukO-88">
          <mxGeometry relative="1" as="geometry" />
        </mxCell>
        <mxCell id="bCi3f5IO90WWb2AlEukO-85" value="" style="ellipse;whiteSpace=wrap;html=1;" vertex="1" parent="1">
          <mxGeometry x="990" y="1910" width="30" height="30" as="geometry" />
        </mxCell>
        <mxCell id="bCi3f5IO90WWb2AlEukO-86" value="" style="edgeStyle=orthogonalEdgeStyle;rounded=0;orthogonalLoop=1;jettySize=auto;html=1;" edge="1" parent="1" source="bCi3f5IO90WWb2AlEukO-88" target="bCi3f5IO90WWb2AlEukO-92">
          <mxGeometry relative="1" as="geometry" />
        </mxCell>
        <mxCell id="bCi3f5IO90WWb2AlEukO-87" style="edgeStyle=orthogonalEdgeStyle;rounded=0;orthogonalLoop=1;jettySize=auto;html=1;exitX=1;exitY=0.5;exitDx=0;exitDy=0;entryX=1;entryY=0.5;entryDx=0;entryDy=0;" edge="1" parent="1" source="bCi3f5IO90WWb2AlEukO-88" target="bCi3f5IO90WWb2AlEukO-98">
          <mxGeometry relative="1" as="geometry">
            <Array as="points">
              <mxPoint x="1520" y="2110" />
              <mxPoint x="1520" y="1045" />
            </Array>
          </mxGeometry>
        </mxCell>
        <mxCell id="bCi3f5IO90WWb2AlEukO-88" value="scroe=0 ใช่หรือไม่" style="rhombus;whiteSpace=wrap;html=1;" vertex="1" parent="1">
          <mxGeometry x="922.5" y="2070" width="165" height="80" as="geometry" />
        </mxCell>
        <mxCell id="bCi3f5IO90WWb2AlEukO-89" value="จริง" style="text;html=1;align=center;verticalAlign=middle;resizable=0;points=[];autosize=1;strokeColor=none;fillColor=none;" vertex="1" parent="1">
          <mxGeometry x="760" y="1665" width="40" height="30" as="geometry" />
        </mxCell>
        <mxCell id="bCi3f5IO90WWb2AlEukO-90" value="เท็จ" style="text;html=1;align=center;verticalAlign=middle;resizable=0;points=[];autosize=1;strokeColor=none;fillColor=none;" vertex="1" parent="1">
          <mxGeometry x="1170" y="1665" width="40" height="30" as="geometry" />
        </mxCell>
        <mxCell id="bCi3f5IO90WWb2AlEukO-91" value="" style="edgeStyle=orthogonalEdgeStyle;rounded=0;orthogonalLoop=1;jettySize=auto;html=1;" edge="1" parent="1" source="bCi3f5IO90WWb2AlEukO-92" target="bCi3f5IO90WWb2AlEukO-94">
          <mxGeometry relative="1" as="geometry" />
        </mxCell>
        <mxCell id="bCi3f5IO90WWb2AlEukO-92" value="แสดง&quot;Game over please try again&quot;" style="whiteSpace=wrap;html=1;" vertex="1" parent="1">
          <mxGeometry x="390" y="2080" width="220" height="60" as="geometry" />
        </mxCell>
        <mxCell id="bCi3f5IO90WWb2AlEukO-93" style="edgeStyle=orthogonalEdgeStyle;rounded=0;orthogonalLoop=1;jettySize=auto;html=1;exitX=0.5;exitY=1;exitDx=0;exitDy=0;entryX=0.5;entryY=0;entryDx=0;entryDy=0;" edge="1" parent="1" source="bCi3f5IO90WWb2AlEukO-94" target="bCi3f5IO90WWb2AlEukO-95">
          <mxGeometry relative="1" as="geometry" />
        </mxCell>
        <mxCell id="bCi3f5IO90WWb2AlEukO-94" value="" style="ellipse;whiteSpace=wrap;html=1;" vertex="1" parent="1">
          <mxGeometry x="485" y="2250" width="30" height="30" as="geometry" />
        </mxCell>
        <mxCell id="bCi3f5IO90WWb2AlEukO-95" value="สิ้นสุด" style="ellipse;whiteSpace=wrap;html=1;" vertex="1" parent="1">
          <mxGeometry x="447.5" y="2350" width="105" height="70" as="geometry" />
        </mxCell>
        <mxCell id="bCi3f5IO90WWb2AlEukO-96" value="จริง" style="text;html=1;align=center;verticalAlign=middle;resizable=0;points=[];autosize=1;strokeColor=none;fillColor=none;" vertex="1" parent="1">
          <mxGeometry x="810" y="2080" width="40" height="30" as="geometry" />
        </mxCell>
        <mxCell id="bCi3f5IO90WWb2AlEukO-97" style="edgeStyle=orthogonalEdgeStyle;rounded=0;orthogonalLoop=1;jettySize=auto;html=1;exitX=0.5;exitY=1;exitDx=0;exitDy=0;entryX=0.5;entryY=0;entryDx=0;entryDy=0;" edge="1" parent="1" source="bCi3f5IO90WWb2AlEukO-98" target="bCi3f5IO90WWb2AlEukO-68">
          <mxGeometry relative="1" as="geometry" />
        </mxCell>
        <mxCell id="bCi3f5IO90WWb2AlEukO-98" value="" style="ellipse;whiteSpace=wrap;html=1;" vertex="1" parent="1">
          <mxGeometry x="655" y="1030" width="30" height="30" as="geometry" />
        </mxCell>
        <mxCell id="bCi3f5IO90WWb2AlEukO-99" style="edgeStyle=orthogonalEdgeStyle;rounded=0;orthogonalLoop=1;jettySize=auto;html=1;exitX=0.5;exitY=1;exitDx=0;exitDy=0;entryX=0.5;entryY=0;entryDx=0;entryDy=0;" edge="1" parent="1" source="bCi3f5IO90WWb2AlEukO-100" target="bCi3f5IO90WWb2AlEukO-77">
          <mxGeometry relative="1" as="geometry" />
        </mxCell>
        <mxCell id="bCi3f5IO90WWb2AlEukO-100" value="score-10" style="whiteSpace=wrap;html=1;" vertex="1" parent="1">
          <mxGeometry x="940" y="1530" width="120" height="60" as="geometry" />
        </mxCell>
        <mxCell id="bCi3f5IO90WWb2AlEukO-101" style="edgeStyle=orthogonalEdgeStyle;rounded=0;orthogonalLoop=1;jettySize=auto;html=1;exitX=0.5;exitY=1;exitDx=0;exitDy=0;entryX=0.5;entryY=0;entryDx=0;entryDy=0;" edge="1" parent="1" source="bCi3f5IO90WWb2AlEukO-103" target="bCi3f5IO90WWb2AlEukO-100">
          <mxGeometry relative="1" as="geometry" />
        </mxCell>
        <mxCell id="bCi3f5IO90WWb2AlEukO-102" value="" style="edgeStyle=orthogonalEdgeStyle;rounded=0;orthogonalLoop=1;jettySize=auto;html=1;" edge="1" parent="1" source="bCi3f5IO90WWb2AlEukO-103" target="bCi3f5IO90WWb2AlEukO-106">
          <mxGeometry relative="1" as="geometry" />
        </mxCell>
        <mxCell id="bCi3f5IO90WWb2AlEukO-103" value="Numberเกินขอบเขตหรือน้อยกว่าขอบเขต" style="rhombus;whiteSpace=wrap;html=1;" vertex="1" parent="1">
          <mxGeometry x="870" y="1410" width="260" height="80" as="geometry" />
        </mxCell>
        <mxCell id="bCi3f5IO90WWb2AlEukO-104" value="เท็จ" style="text;html=1;align=center;verticalAlign=middle;resizable=0;points=[];autosize=1;strokeColor=none;fillColor=none;" vertex="1" parent="1">
          <mxGeometry x="890" y="1190" width="40" height="30" as="geometry" />
        </mxCell>
        <mxCell id="bCi3f5IO90WWb2AlEukO-105" style="edgeStyle=orthogonalEdgeStyle;rounded=0;orthogonalLoop=1;jettySize=auto;html=1;exitX=1;exitY=0.5;exitDx=0;exitDy=0;entryX=1;entryY=0.5;entryDx=0;entryDy=0;" edge="1" parent="1" source="bCi3f5IO90WWb2AlEukO-106" target="bCi3f5IO90WWb2AlEukO-98">
          <mxGeometry relative="1" as="geometry" />
        </mxCell>
        <mxCell id="bCi3f5IO90WWb2AlEukO-106" value="แสดง &quot;กรุณาใส่เลขในช่วงที่กำหนด&quot;" style="whiteSpace=wrap;html=1;" vertex="1" parent="1">
          <mxGeometry x="1310" y="1420" width="190" height="60" as="geometry" />
        </mxCell>
        <mxCell id="bCi3f5IO90WWb2AlEukO-107" value="เท็จ" style="text;html=1;align=center;verticalAlign=middle;resizable=0;points=[];autosize=1;strokeColor=none;fillColor=none;" vertex="1" parent="1">
          <mxGeometry x="950" y="1500" width="40" height="30" as="geometry" />
        </mxCell>
        <mxCell id="bCi3f5IO90WWb2AlEukO-108" value="จริง" style="text;html=1;align=center;verticalAlign=middle;resizable=0;points=[];autosize=1;strokeColor=none;fillColor=none;" vertex="1" parent="1">
          <mxGeometry x="1180" y="1410" width="40" height="30" as="geometry" />
        </mxCell>
        <mxCell id="bCi3f5IO90WWb2AlEukO-109" style="edgeStyle=orthogonalEdgeStyle;rounded=0;orthogonalLoop=1;jettySize=auto;html=1;exitX=0.5;exitY=1;exitDx=0;exitDy=0;entryX=0.5;entryY=0;entryDx=0;entryDy=0;" edge="1" parent="1" source="bCi3f5IO90WWb2AlEukO-110" target="bCi3f5IO90WWb2AlEukO-103">
          <mxGeometry relative="1" as="geometry" />
        </mxCell>
        <mxCell id="bCi3f5IO90WWb2AlEukO-110" value="แสดงช่วงคะแนนของคำตอบ" style="rounded=0;whiteSpace=wrap;html=1;" vertex="1" parent="1">
          <mxGeometry x="890" y="1300" width="220" height="60" as="geometry" />
        </mxCell>
        <mxCell id="bCi3f5IO90WWb2AlEukO-111" value="" style="edgeStyle=orthogonalEdgeStyle;rounded=0;orthogonalLoop=1;jettySize=auto;html=1;" edge="1" parent="1" source="bCi3f5IO90WWb2AlEukO-112" target="bCi3f5IO90WWb2AlEukO-114">
          <mxGeometry relative="1" as="geometry" />
        </mxCell>
        <mxCell id="bCi3f5IO90WWb2AlEukO-112" value="ประกาศตัวแปร intput" style="shape=parallelogram;perimeter=parallelogramPerimeter;whiteSpace=wrap;html=1;fixedSize=1;" vertex="1" parent="1">
          <mxGeometry x="590" y="430" width="200" height="60" as="geometry" />
        </mxCell>
        <mxCell id="bCi3f5IO90WWb2AlEukO-126" style="edgeStyle=orthogonalEdgeStyle;rounded=0;orthogonalLoop=1;jettySize=auto;html=1;entryX=0.5;entryY=0;entryDx=0;entryDy=0;" edge="1" parent="1" source="bCi3f5IO90WWb2AlEukO-114" target="bCi3f5IO90WWb2AlEukO-125">
          <mxGeometry relative="1" as="geometry" />
        </mxCell>
        <mxCell id="bCi3f5IO90WWb2AlEukO-130" style="edgeStyle=orthogonalEdgeStyle;rounded=0;orthogonalLoop=1;jettySize=auto;html=1;exitX=0.5;exitY=1;exitDx=0;exitDy=0;entryX=0.5;entryY=0;entryDx=0;entryDy=0;" edge="1" parent="1" source="bCi3f5IO90WWb2AlEukO-114" target="bCi3f5IO90WWb2AlEukO-129">
          <mxGeometry relative="1" as="geometry" />
        </mxCell>
        <mxCell id="bCi3f5IO90WWb2AlEukO-114" value="แปลง input เป็น&amp;nbsp; ตัวเลข&lt;div&gt;ได้หรือไม่?&amp;nbsp;&lt;/div&gt;" style="rhombus;whiteSpace=wrap;html=1;" vertex="1" parent="1">
          <mxGeometry x="600" y="520" width="180" height="80" as="geometry" />
        </mxCell>
        <mxCell id="bCi3f5IO90WWb2AlEukO-115" value="แสดง score" style="shape=parallelogram;perimeter=parallelogramPerimeter;whiteSpace=wrap;html=1;fixedSize=1;" vertex="1" parent="1">
          <mxGeometry x="620" y="810" width="120" height="60" as="geometry" />
        </mxCell>
        <mxCell id="bCi3f5IO90WWb2AlEukO-117" style="edgeStyle=orthogonalEdgeStyle;rounded=0;orthogonalLoop=1;jettySize=auto;html=1;exitX=1;exitY=0.5;exitDx=0;exitDy=0;entryX=1;entryY=0.5;entryDx=0;entryDy=0;" edge="1" parent="1" source="bCi3f5IO90WWb2AlEukO-118" target="bCi3f5IO90WWb2AlEukO-75">
          <mxGeometry relative="1" as="geometry" />
        </mxCell>
        <mxCell id="bCi3f5IO90WWb2AlEukO-118" value="&quot;Plase enter only 1 or -1&quot;" style="whiteSpace=wrap;html=1;" vertex="1" parent="1">
          <mxGeometry x="1130" y="650" width="180" height="60" as="geometry" />
        </mxCell>
        <mxCell id="bCi3f5IO90WWb2AlEukO-119" style="edgeStyle=orthogonalEdgeStyle;rounded=0;orthogonalLoop=1;jettySize=auto;html=1;exitX=0.5;exitY=1;exitDx=0;exitDy=0;entryX=0.582;entryY=0.054;entryDx=0;entryDy=0;entryPerimeter=0;" edge="1" parent="1" source="bCi3f5IO90WWb2AlEukO-115" target="bCi3f5IO90WWb2AlEukO-66">
          <mxGeometry relative="1" as="geometry" />
        </mxCell>
        <mxCell id="bCi3f5IO90WWb2AlEukO-120" value="จริง" style="text;html=1;align=center;verticalAlign=middle;resizable=0;points=[];autosize=1;strokeColor=none;fillColor=none;" vertex="1" parent="1">
          <mxGeometry x="645" y="400" width="40" height="30" as="geometry" />
        </mxCell>
        <mxCell id="bCi3f5IO90WWb2AlEukO-121" value="เท็จ" style="text;html=1;align=center;verticalAlign=middle;resizable=0;points=[];autosize=1;strokeColor=none;fillColor=none;" vertex="1" parent="1">
          <mxGeometry x="895" y="330" width="40" height="30" as="geometry" />
        </mxCell>
        <mxCell id="bCi3f5IO90WWb2AlEukO-122" value="เท็จ" style="text;html=1;align=center;verticalAlign=middle;resizable=0;points=[];autosize=1;strokeColor=none;fillColor=none;" vertex="1" parent="1">
          <mxGeometry x="1047.5" y="1010" width="40" height="30" as="geometry" />
        </mxCell>
        <mxCell id="bCi3f5IO90WWb2AlEukO-123" value="เท็จ" style="text;html=1;align=center;verticalAlign=middle;resizable=0;points=[];autosize=1;strokeColor=none;fillColor=none;" vertex="1" parent="1">
          <mxGeometry x="800" y="520" width="40" height="30" as="geometry" />
        </mxCell>
        <mxCell id="bCi3f5IO90WWb2AlEukO-124" value="จริง" style="text;html=1;align=center;verticalAlign=middle;resizable=0;points=[];autosize=1;strokeColor=none;fillColor=none;" vertex="1" parent="1">
          <mxGeometry x="645" y="600" width="40" height="30" as="geometry" />
        </mxCell>
        <mxCell id="bCi3f5IO90WWb2AlEukO-127" style="edgeStyle=orthogonalEdgeStyle;rounded=0;orthogonalLoop=1;jettySize=auto;html=1;entryX=0;entryY=0.5;entryDx=0;entryDy=0;" edge="1" parent="1" source="bCi3f5IO90WWb2AlEukO-125" target="bCi3f5IO90WWb2AlEukO-118">
          <mxGeometry relative="1" as="geometry" />
        </mxCell>
        <mxCell id="bCi3f5IO90WWb2AlEukO-134" style="edgeStyle=orthogonalEdgeStyle;rounded=0;orthogonalLoop=1;jettySize=auto;html=1;entryX=1;entryY=0.5;entryDx=0;entryDy=0;" edge="1" parent="1" source="bCi3f5IO90WWb2AlEukO-125" target="bCi3f5IO90WWb2AlEukO-129">
          <mxGeometry relative="1" as="geometry">
            <mxPoint x="800" y="620" as="targetPoint" />
            <Array as="points">
              <mxPoint x="930" y="760" />
              <mxPoint x="931" y="760" />
              <mxPoint x="931" y="790" />
              <mxPoint x="800" y="790" />
              <mxPoint x="800" y="655" />
            </Array>
          </mxGeometry>
        </mxCell>
        <mxCell id="bCi3f5IO90WWb2AlEukO-125" value="&amp;nbsp;inpu ค่าเป็น 1 หรือ -1&lt;br&gt;&amp;nbsp;หรือไม่?" style="rhombus;whiteSpace=wrap;html=1;" vertex="1" parent="1">
          <mxGeometry x="840" y="630" width="180" height="80" as="geometry" />
        </mxCell>
        <mxCell id="bCi3f5IO90WWb2AlEukO-128" value="เท็จ" style="text;html=1;align=center;verticalAlign=middle;resizable=0;points=[];autosize=1;strokeColor=none;fillColor=none;" vertex="1" parent="1">
          <mxGeometry x="1047.5" y="630" width="40" height="30" as="geometry" />
        </mxCell>
        <mxCell id="bCi3f5IO90WWb2AlEukO-129" value="" style="ellipse;whiteSpace=wrap;html=1;" vertex="1" parent="1">
          <mxGeometry x="675" y="640" width="30" height="30" as="geometry" />
        </mxCell>
        <mxCell id="bCi3f5IO90WWb2AlEukO-131" style="edgeStyle=orthogonalEdgeStyle;rounded=0;orthogonalLoop=1;jettySize=auto;html=1;entryX=0.576;entryY=0.077;entryDx=0;entryDy=0;entryPerimeter=0;" edge="1" parent="1" source="bCi3f5IO90WWb2AlEukO-129" target="bCi3f5IO90WWb2AlEukO-64">
          <mxGeometry relative="1" as="geometry" />
        </mxCell>
        <mxCell id="bCi3f5IO90WWb2AlEukO-135" value="จริง" style="text;html=1;align=center;verticalAlign=middle;resizable=0;points=[];autosize=1;strokeColor=none;fillColor=none;" vertex="1" parent="1">
          <mxGeometry x="870" y="715" width="40" height="30" as="geometry" />
        </mxCell>
      </root>
    </mxGraphModel>
  </diagram>
</mxfile>
